<svg width="32" height="33" viewBox="0 0 32 33" fill="none" xmlns="http://www.w3.org/2000/svg">
<path d="M27.4013 20.53C27.2943 20.4624 27.172 20.4229 27.0457 20.4152C26.9193 20.4076 26.7931 20.432 26.6788 20.4863C26.3139 20.6586 25.9156 20.7486 25.512 20.7497C25.1085 20.7509 24.7096 20.6632 24.3438 20.4929C23.9779 20.3227 23.654 20.0739 23.3951 19.7645C23.1361 19.455 22.9484 19.0923 22.8454 18.7021C22.7423 18.3119 22.7264 17.9039 22.7987 17.5069C22.871 17.1099 23.0298 16.7337 23.2639 16.4049C23.4979 16.0762 23.8014 15.8029 24.1529 15.6047C24.5043 15.4064 24.8951 15.2878 25.2975 15.2575C25.7724 15.2232 26.2482 15.3119 26.6788 15.515C26.7931 15.5692 26.9192 15.5936 27.0455 15.5859C27.1717 15.5783 27.294 15.5388 27.4009 15.4712C27.5078 15.4036 27.5959 15.31 27.6569 15.1992C27.718 15.0884 27.75 14.964 27.75 14.8375V9.50002C27.75 9.03589 27.5657 8.59078 27.2375 8.26259C26.9093 7.9344 26.4642 7.75002 26 7.75002H21.185C21.2282 7.50236 21.25 7.25143 21.25 7.00002C21.2491 6.4196 21.1297 5.84548 20.8991 5.31285C20.6684 4.78022 20.3315 4.30031 19.9088 3.90252C19.4865 3.50214 18.9857 3.19375 18.4382 2.99688C17.8906 2.8 17.3081 2.71892 16.7275 2.75877C16.1302 2.79726 15.5477 2.9615 15.0183 3.24073C14.4888 3.51996 14.0243 3.90788 13.6552 4.37909C13.286 4.85029 13.0206 5.39416 12.8763 5.97508C12.7319 6.55599 12.7119 7.16084 12.8175 7.75002H8.00003C7.5359 7.75002 7.09078 7.9344 6.76259 8.26259C6.4344 8.59078 6.25003 9.03589 6.25003 9.50002V13.8163C5.55307 13.6914 4.83595 13.7426 4.16381 13.9652C3.49167 14.1879 2.88582 14.575 2.40128 15.0913C1.85185 15.6766 1.47941 16.4055 1.32709 17.1937C1.17477 17.9818 1.24879 18.797 1.54058 19.5449C1.83237 20.2927 2.33 20.9427 2.97586 21.4194C3.62172 21.8962 4.3894 22.1802 5.19003 22.2388C5.54428 22.2644 5.90033 22.2459 6.25003 22.1838V26.5C6.25003 26.9642 6.4344 27.4093 6.76259 27.7375C7.09078 28.0656 7.5359 28.25 8.00003 28.25H26C26.4642 28.25 26.9093 28.0656 27.2375 27.7375C27.5657 27.4093 27.75 26.9642 27.75 26.5V21.1638C27.75 21.0373 27.7181 20.9129 27.6571 20.8021C27.5961 20.6913 27.5081 20.5977 27.4013 20.53ZM26.25 26.5C26.25 26.5663 26.2237 26.6299 26.1768 26.6768C26.1299 26.7237 26.0663 26.75 26 26.75H8.00003C7.93372 26.75 7.87014 26.7237 7.82325 26.6768C7.77637 26.6299 7.75003 26.5663 7.75003 26.5V21.1638C7.75003 20.9649 7.67101 20.7741 7.53036 20.6334C7.38971 20.4928 7.19894 20.4138 7.00003 20.4138C6.88886 20.4135 6.77906 20.4383 6.67878 20.4863C6.27319 20.6786 5.82668 20.7687 5.37825 20.7487C4.92981 20.7288 4.49308 20.5993 4.10619 20.3717C3.71929 20.1441 3.39399 19.8253 3.15868 19.443C2.92338 19.0608 2.78522 18.6267 2.75628 18.1788C2.7251 17.7007 2.81935 17.2228 3.02969 16.7924C3.24003 16.3619 3.55918 15.9939 3.9555 15.7248C4.35183 15.4556 4.8116 15.2947 5.28926 15.2579C5.76692 15.2211 6.24591 15.3097 6.67878 15.515C6.79308 15.5692 6.91922 15.5936 7.04548 15.5859C7.17174 15.5783 7.29401 15.5388 7.40091 15.4712C7.50782 15.4036 7.59589 15.31 7.65693 15.1992C7.71797 15.0884 7.74999 14.964 7.75003 14.8375V9.50002C7.75003 9.43372 7.77637 9.37013 7.82325 9.32325C7.87014 9.27636 7.93372 9.25002 8.00003 9.25002H13.8363C13.9628 9.24999 14.0872 9.21796 14.198 9.15692C14.3088 9.09588 14.4023 9.00781 14.4699 8.90091C14.5375 8.794 14.577 8.67173 14.5847 8.54548C14.5924 8.41922 14.568 8.29307 14.5138 8.17877C14.3148 7.74919 14.2287 7.27591 14.2638 6.80377C14.293 6.40093 14.4107 6.00947 14.6083 5.65723C14.806 5.305 15.0788 5.00062 15.4074 4.76575C15.736 4.53088 16.1123 4.37128 16.5096 4.29829C16.9069 4.22529 17.3153 4.24071 17.7059 4.34343C18.0966 4.44615 18.4598 4.63366 18.7697 4.89263C19.0797 5.1516 19.3288 5.47567 19.4994 5.8418C19.6699 6.20794 19.7577 6.60714 19.7565 7.01105C19.7554 7.41496 19.6652 7.81364 19.4925 8.17877C19.4386 8.2925 19.4142 8.41797 19.4215 8.54362C19.4288 8.66927 19.4676 8.79105 19.5344 8.89776C19.6011 9.00447 19.6936 9.09267 19.8034 9.15423C19.9132 9.21579 20.0367 9.24873 20.1625 9.25002H26C26.0663 9.25002 26.1299 9.27636 26.1768 9.32325C26.2237 9.37013 26.25 9.43372 26.25 9.50002V13.8175C25.6608 13.7119 25.056 13.7319 24.4751 13.8762C23.8942 14.0206 23.3503 14.286 22.8791 14.6552C22.4079 15.0243 22.02 15.4888 21.7407 16.0183C21.4615 16.5477 21.2973 17.1302 21.2588 17.7275C21.2193 18.3079 21.3004 18.8902 21.4971 19.4377C21.6937 19.9852 22.0016 20.4861 22.4013 20.9088C22.8867 21.4239 23.4926 21.8103 24.1644 22.033C24.8363 22.2558 25.553 22.3081 26.25 22.185V26.5Z" fill="#C2C2BD"/>
</svg>
