<svg width="32" height="33" viewBox="0 0 32 33" fill="none" xmlns="http://www.w3.org/2000/svg">
<path d="M2.66663 16.772C2.66663 13.72 2.66663 12.1946 3.35996 10.9306C4.05063 9.66529 5.31596 8.88129 7.84529 7.31063L10.512 5.65596C13.1853 3.99596 14.5226 3.16663 16 3.16663C17.4773 3.16663 18.8133 3.99596 21.488 5.65596L24.1546 7.31063C26.684 8.88129 27.9493 9.66529 28.6413 10.9306C29.3333 12.1946 29.3333 13.72 29.3333 16.7706V18.8C29.3333 24 29.3333 26.6013 27.7706 28.2173C26.2093 29.8333 23.6946 29.8333 18.6666 29.8333H13.3333C8.30529 29.8333 5.79063 29.8333 4.22929 28.2173C2.66663 26.6013 2.66663 24.0013 2.66663 18.8V16.772Z" stroke="#F3F2F1" stroke-width="2"/>
<path d="M16 20.5V24.5" stroke="#F3F2F1" stroke-opacity="0.5" stroke-width="2" stroke-linecap="round"/>
</svg>
