<svg width="32" height="33" viewBox="0 0 32 33" fill="none" xmlns="http://www.w3.org/2000/svg">
<path d="M5.33337 11.1666C5.33337 7.39596 5.33337 5.50929 6.50537 4.33863C7.67604 3.16663 9.56271 3.16663 13.3334 3.16663H18.6667C22.4374 3.16663 24.324 3.16663 25.4947 4.33863C26.6667 5.50929 26.6667 7.39596 26.6667 11.1666V21.8333C26.6667 25.604 26.6667 27.4906 25.4947 28.6613C24.324 29.8333 22.4374 29.8333 18.6667 29.8333H13.3334C9.56271 29.8333 7.67604 29.8333 6.50537 28.6613C5.33337 27.4906 5.33337 25.604 5.33337 21.8333V11.1666Z" stroke="#C2C2BD" stroke-width="1.5"/>
<path opacity="0.5" d="M26.5307 21.8333H10.5307C9.29071 21.8333 8.67071 21.8333 8.16137 21.9693C7.48312 22.1511 6.8647 22.5083 6.36828 23.005C5.87186 23.5017 5.51493 24.1202 5.33337 24.7986" stroke="#C2C2BD" stroke-width="1.5"/>
<path opacity="0.5" d="M10.6667 9.83325H21.3334M10.6667 14.4999H17.3334" stroke="#C2C2BD" stroke-width="1.5" stroke-linecap="round"/>
</svg>
